<svg width="14" height="18" viewBox="0 0 14 18" fill="none" xmlns="http://www.w3.org/2000/svg">
<path fill-rule="evenodd" clip-rule="evenodd" d="M7 4C5.27411 4 3.875 5.39911 3.875 7.125C3.875 8.85089 5.27411 10.25 7 10.25C8.72589 10.25 10.125 8.85089 10.125 7.125C10.125 5.39911 8.72589 4 7 4ZM7 9C5.96447 9 5.125 8.16053 5.125 7.125C5.125 6.08947 5.96447 5.25 7 5.25C8.03553 5.25 8.875 6.08947 8.875 7.125C8.875 8.16053 8.03553 9 7 9ZM7 0.25C3.20483 0.254305 0.129305 3.32983 0.125 7.125C0.125 9.57812 1.25859 12.1781 3.40625 14.6445C4.37127 15.759 5.45739 16.7626 6.64453 17.6367C6.85981 17.7875 7.14644 17.7875 7.36172 17.6367C8.54668 16.7623 9.63069 15.7587 10.5938 14.6445C12.7383 12.1781 13.875 9.57812 13.875 7.125C13.8707 3.32983 10.7952 0.254305 7 0.25ZM7 16.3438C5.70859 15.3281 1.375 11.5977 1.375 7.125C1.375 4.0184 3.8934 1.5 7 1.5C10.1066 1.5 12.625 4.0184 12.625 7.125C12.625 11.5961 8.29141 15.3281 7 16.3438Z" fill="white"/>
</svg>
