<svg width="18" height="18" viewBox="0 0 18 18" fill="none" xmlns="http://www.w3.org/2000/svg">
<path fill-rule="evenodd" clip-rule="evenodd" d="M16.9421 16.0578L13.0304 12.1468C15.3857 9.31914 15.1003 5.13905 12.3826 2.65773C9.66479 0.176411 5.47606 0.271607 2.87383 2.87383C0.271607 5.47606 0.176411 9.66479 2.65773 12.3826C5.13905 15.1003 9.31914 15.3857 12.1468 13.0304L16.0578 16.9421C16.302 17.1863 16.6979 17.1863 16.9421 16.9421C17.1863 16.6979 17.1863 16.302 16.9421 16.0578ZM2.12494 7.74994C2.12494 4.64334 4.64334 2.12494 7.74994 2.12494C10.8565 2.12494 13.3749 4.64334 13.3749 7.74994C13.3749 10.8565 10.8565 13.3749 7.74994 13.3749C4.64477 13.3715 2.12839 10.8551 2.12494 7.74994Z" fill="white"/>
</svg>
