<svg width="4" height="16" viewBox="0 0 4 16" fill="none" xmlns="http://www.w3.org/2000/svg">
<path fill-rule="evenodd" clip-rule="evenodd" d="M3.125 8C3.125 8.62132 2.62132 9.125 2 9.125C1.37868 9.125 0.875 8.62132 0.875 8C0.875 7.37868 1.37868 6.875 2 6.875C2.62132 6.875 3.125 7.37868 3.125 8ZM2 2.75C2.62132 2.75 3.125 2.24632 3.125 1.625C3.125 1.00368 2.62132 0.5 2 0.5C1.37868 0.5 0.875 1.00368 0.875 1.625C0.875 2.24632 1.37868 2.75 2 2.75ZM2 13.25C1.37868 13.25 0.875 13.7537 0.875 14.375C0.875 14.9963 1.37868 15.5 2 15.5C2.62132 15.5 3.125 14.9963 3.125 14.375C3.125 13.7537 2.62132 13.25 2 13.25Z" fill="white"/>
</svg>
