<svg width="18" height="17" viewBox="0 0 18 17" fill="none" xmlns="http://www.w3.org/2000/svg">
<path fill-rule="evenodd" clip-rule="evenodd" d="M14.625 10.875C14.0726 10.8747 13.5358 11.0583 13.0992 11.3969L11.2937 9.99063C11.4301 9.67816 11.5003 9.3409 11.5 9C11.5 8.94219 11.5 8.88438 11.4937 8.82734L12.5273 8.48281C13.2033 9.52537 14.5424 9.91325 15.6709 9.39341C16.7995 8.87356 17.375 7.60378 17.022 6.41246C16.669 5.22113 15.4946 4.46986 14.265 4.64878C13.0354 4.82769 12.1239 5.88247 12.125 7.125C12.125 7.18281 12.125 7.24062 12.1313 7.29766L11.0977 7.64219C10.6373 6.93047 9.84764 6.5005 9 6.5C8.86206 6.50029 8.72436 6.51178 8.58828 6.53438L8.05391 5.32812C9.00666 4.56687 9.27112 3.22927 8.67975 2.16272C8.08838 1.09617 6.81377 0.611935 5.66341 1.01679C4.51304 1.42164 3.82265 2.59743 4.02961 3.79927C4.23657 5.00111 5.28048 5.87824 6.5 5.875C6.63794 5.87471 6.77564 5.86322 6.91172 5.84062L7.44609 7.04375C6.51155 7.78341 6.23102 9.08097 6.77656 10.1406L4.76797 11.925C3.72215 11.22 2.31524 11.4026 1.48404 12.3512C0.652836 13.2998 0.65668 14.7185 1.49301 15.6626C2.32934 16.6068 3.73722 16.7817 4.7792 16.071C5.82118 15.3603 6.17216 13.9857 5.59844 12.8625L7.60703 11.0781C8.49902 11.6787 9.67558 11.6397 10.5258 10.9812L12.3313 12.3875C12.1954 12.699 12.1252 13.0352 12.125 13.375C12.125 14.7557 13.2443 15.875 14.625 15.875C16.0057 15.875 17.125 14.7557 17.125 13.375C17.125 11.9943 16.0057 10.875 14.625 10.875V10.875ZM14.625 5.875C15.3154 5.875 15.875 6.43464 15.875 7.125C15.875 7.81536 15.3154 8.375 14.625 8.375C13.9346 8.375 13.375 7.81536 13.375 7.125C13.375 6.43464 13.9346 5.875 14.625 5.875V5.875ZM5.25 3.375C5.25 2.68464 5.80964 2.125 6.5 2.125C7.19036 2.125 7.75 2.68464 7.75 3.375C7.75 4.06536 7.19036 4.625 6.5 4.625C5.80964 4.625 5.25 4.06536 5.25 3.375V3.375ZM3.375 15.25C2.68464 15.25 2.125 14.6904 2.125 14C2.125 13.3096 2.68464 12.75 3.375 12.75C4.06536 12.75 4.625 13.3096 4.625 14C4.625 14.6904 4.06536 15.25 3.375 15.25V15.25ZM7.75 9C7.75 8.30964 8.30964 7.75 9 7.75C9.69036 7.75 10.25 8.30964 10.25 9C10.25 9.69036 9.69036 10.25 9 10.25C8.30964 10.25 7.75 9.69036 7.75 9V9ZM14.625 14.625C13.9346 14.625 13.375 14.0654 13.375 13.375C13.375 12.6846 13.9346 12.125 14.625 12.125C15.3154 12.125 15.875 12.6846 15.875 13.375C15.875 14.0654 15.3154 14.625 14.625 14.625V14.625Z" fill="white"/>
</svg>
